<?xml version="1.0" encoding="UTF-8"?>
<svg version="1.1" viewBox="0 0 2048 2048" width="512" height="512" xmlns="http://www.w3.org/2000/svg">
<path transform="translate(1023,22)" d="m0 0 3 1 11 32 13 36 20 56 22 62 20 56 12 33 10 29 22 62 19 53 22 62 15 42 4 11v2l50-24 28-13 33-16 22-10 16-8 22-10 16-8 27-13 16-7 16-8 27-13 28-13 33-16 28-13 25-12 28-13 35-17 28-13 34-16 5-2-1 6-8 16-26 56-8 16-10 22-8 16-12 26-8 16-18 38-12 26-8 16-10 22-8 16-13 27-13 28-17 35-9 20-8 16-18 38-13 27-11 24-4 7v3l63 23 26 9 48 17 33 12 29 10 44 16 26 9 48 17 33 12 26 9 30 11 29 10 95 34 7 3v2l-101 36-115 41-37 13-47 17-29 10-42 15-149 53-17 6v3l16 33 9 20 8 16 19 40 17 36 13 27 13 28 15 31 13 28 15 31 11 23 16 34 12 26 8 16 16 34 13 27 11 23 14 30 4 8v3l-5-1-26-13-28-13-40-19-29-14-28-13-35-17-28-13-29-14-28-13-31-15-28-13-33-16-28-13-31-15-28-13-37-18-22-10-3-2-1 6-10 27-10 29-15 42-22 62-20 56-18 51-11 30-10 29-19 53-22 62-17 47-9 26-7 19-4-4-7-21-17-47-17-48-16-45-20-56-17-48-15-42-16-45-17-48-15-42-17-47-10-29-5-14v-2l-18 8-27 13-28 13-35 17-28 13-31 15-28 13-31 15-22 10-16 8-80 38-28 13-16 8-34 16-29 14-56 26-8 4h-2l1-5 14-29 13-28 19-40 14-29 10-22 8-16 11-24 8-16 18-38 13-28 17-35 13-28 17-35 13-28 14-29 11-24 8-16 17-36 4-8v-3l-23-8-177-63-191-68-118-42-25-9-2-1 1-3 95-34 56-20 48-17 44-16 29-10 27-10 29-10 45-16 157-56 6-1-13-28-16-33-13-28-15-31-13-28-17-35-13-28-16-33-13-28-17-35-13-28-14-29-13-28-14-29-10-22-8-16-17-36-10-21 4-1 27 13 26 12 27 13 22 10 16 8 34 16 26 12 16 8 34 16 31 15 28 13 35 17 20 9 16 8 34 16 27 13 28 13 31 15 24 11 12 6 1-6 14-38 10-29 30-84 17-48 15-42 22-62 19-53 17-48 25-70 17-47 3-9z"/>
</svg>
